<?xml version="1.0" encoding="utf-8" standalone="no"?>
<!DOCTYPE svg PUBLIC "-//W3C//DTD SVG 1.1//EN"
  "http://www.w3.org/Graphics/SVG/1.1/DTD/svg11.dtd">
<!-- Created with matplotlib (https://matplotlib.org/) -->
<svg height="288pt" version="1.1" viewBox="0 0 432 288" width="432pt" xmlns="http://www.w3.org/2000/svg" xmlns:xlink="http://www.w3.org/1999/xlink">
 <defs>
  <style type="text/css">
*{stroke-linecap:butt;stroke-linejoin:round;}
  </style>
 </defs>
 <g id="figure_1">
  <g id="patch_1">
   <path d="M 0 288 
L 432 288 
L 432 0 
L 0 0 
z
" style="fill:#ffffff;"/>
  </g>
  <g id="axes_1">
   <g id="patch_2">
    <path d="M 54 252 
L 388.8 252 
L 388.8 34.56 
L 54 34.56 
z
" style="fill:#ffffff;"/>
   </g>
   <g id="matplotlib.axis_1">
    <g id="xtick_1">
     <g id="line2d_1">
      <path clip-path="url(#p50501f3130)" d="M 69.218182 252 
L 69.218182 34.56 
" style="fill:none;stroke:#b0b0b0;stroke-linecap:square;stroke-width:0.8;"/>
     </g>
     <g id="line2d_2">
      <defs>
       <path d="M 0 0 
L 0 3.5 
" id="me9288635e2" style="stroke:#000000;stroke-width:0.8;"/>
      </defs>
      <g>
       <use style="stroke:#000000;stroke-width:0.8;" x="69.218182" xlink:href="#me9288635e2" y="252"/>
      </g>
     </g>
     <g id="text_1">
      <!-- −4 -->
      <defs>
       <path d="M 10.59375 35.5 
L 73.1875 35.5 
L 73.1875 27.203125 
L 10.59375 27.203125 
z
" id="DejaVuSans-8722"/>
       <path d="M 37.796875 64.3125 
L 12.890625 25.390625 
L 37.796875 25.390625 
z
M 35.203125 72.90625 
L 47.609375 72.90625 
L 47.609375 25.390625 
L 58.015625 25.390625 
L 58.015625 17.1875 
L 47.609375 17.1875 
L 47.609375 0 
L 37.796875 0 
L 37.796875 17.1875 
L 4.890625 17.1875 
L 4.890625 26.703125 
z
" id="DejaVuSans-52"/>
      </defs>
      <g transform="translate(61.847088 266.598437)scale(0.1 -0.1)">
       <use xlink:href="#DejaVuSans-8722"/>
       <use x="83.789062" xlink:href="#DejaVuSans-52"/>
      </g>
     </g>
    </g>
    <g id="xtick_2">
     <g id="line2d_3">
      <path clip-path="url(#p50501f3130)" d="M 112.698701 252 
L 112.698701 34.56 
" style="fill:none;stroke:#b0b0b0;stroke-linecap:square;stroke-width:0.8;"/>
     </g>
     <g id="line2d_4">
      <g>
       <use style="stroke:#000000;stroke-width:0.8;" x="112.698701" xlink:href="#me9288635e2" y="252"/>
      </g>
     </g>
     <g id="text_2">
      <!-- −3 -->
      <defs>
       <path d="M 40.578125 39.3125 
Q 47.65625 37.796875 51.625 33 
Q 55.609375 28.21875 55.609375 21.1875 
Q 55.609375 10.40625 48.1875 4.484375 
Q 40.765625 -1.421875 27.09375 -1.421875 
Q 22.515625 -1.421875 17.65625 -0.515625 
Q 12.796875 0.390625 7.625 2.203125 
L 7.625 11.71875 
Q 11.71875 9.328125 16.59375 8.109375 
Q 21.484375 6.890625 26.8125 6.890625 
Q 36.078125 6.890625 40.9375 10.546875 
Q 45.796875 14.203125 45.796875 21.1875 
Q 45.796875 27.640625 41.28125 31.265625 
Q 36.765625 34.90625 28.71875 34.90625 
L 20.21875 34.90625 
L 20.21875 43.015625 
L 29.109375 43.015625 
Q 36.375 43.015625 40.234375 45.921875 
Q 44.09375 48.828125 44.09375 54.296875 
Q 44.09375 59.90625 40.109375 62.90625 
Q 36.140625 65.921875 28.71875 65.921875 
Q 24.65625 65.921875 20.015625 65.03125 
Q 15.375 64.15625 9.8125 62.3125 
L 9.8125 71.09375 
Q 15.4375 72.65625 20.34375 73.4375 
Q 25.25 74.21875 29.59375 74.21875 
Q 40.828125 74.21875 47.359375 69.109375 
Q 53.90625 64.015625 53.90625 55.328125 
Q 53.90625 49.265625 50.4375 45.09375 
Q 46.96875 40.921875 40.578125 39.3125 
z
" id="DejaVuSans-51"/>
      </defs>
      <g transform="translate(105.327608 266.598437)scale(0.1 -0.1)">
       <use xlink:href="#DejaVuSans-8722"/>
       <use x="83.789062" xlink:href="#DejaVuSans-51"/>
      </g>
     </g>
    </g>
    <g id="xtick_3">
     <g id="line2d_5">
      <path clip-path="url(#p50501f3130)" d="M 156.179221 252 
L 156.179221 34.56 
" style="fill:none;stroke:#b0b0b0;stroke-linecap:square;stroke-width:0.8;"/>
     </g>
     <g id="line2d_6">
      <g>
       <use style="stroke:#000000;stroke-width:0.8;" x="156.179221" xlink:href="#me9288635e2" y="252"/>
      </g>
     </g>
     <g id="text_3">
      <!-- −2 -->
      <defs>
       <path d="M 19.1875 8.296875 
L 53.609375 8.296875 
L 53.609375 0 
L 7.328125 0 
L 7.328125 8.296875 
Q 12.9375 14.109375 22.625 23.890625 
Q 32.328125 33.6875 34.8125 36.53125 
Q 39.546875 41.84375 41.421875 45.53125 
Q 43.3125 49.21875 43.3125 52.78125 
Q 43.3125 58.59375 39.234375 62.25 
Q 35.15625 65.921875 28.609375 65.921875 
Q 23.96875 65.921875 18.8125 64.3125 
Q 13.671875 62.703125 7.8125 59.421875 
L 7.8125 69.390625 
Q 13.765625 71.78125 18.9375 73 
Q 24.125 74.21875 28.421875 74.21875 
Q 39.75 74.21875 46.484375 68.546875 
Q 53.21875 62.890625 53.21875 53.421875 
Q 53.21875 48.921875 51.53125 44.890625 
Q 49.859375 40.875 45.40625 35.40625 
Q 44.1875 33.984375 37.640625 27.21875 
Q 31.109375 20.453125 19.1875 8.296875 
z
" id="DejaVuSans-50"/>
      </defs>
      <g transform="translate(148.808127 266.598437)scale(0.1 -0.1)">
       <use xlink:href="#DejaVuSans-8722"/>
       <use x="83.789062" xlink:href="#DejaVuSans-50"/>
      </g>
     </g>
    </g>
    <g id="xtick_4">
     <g id="line2d_7">
      <path clip-path="url(#p50501f3130)" d="M 199.65974 252 
L 199.65974 34.56 
" style="fill:none;stroke:#b0b0b0;stroke-linecap:square;stroke-width:0.8;"/>
     </g>
     <g id="line2d_8">
      <g>
       <use style="stroke:#000000;stroke-width:0.8;" x="199.65974" xlink:href="#me9288635e2" y="252"/>
      </g>
     </g>
     <g id="text_4">
      <!-- −1 -->
      <defs>
       <path d="M 12.40625 8.296875 
L 28.515625 8.296875 
L 28.515625 63.921875 
L 10.984375 60.40625 
L 10.984375 69.390625 
L 28.421875 72.90625 
L 38.28125 72.90625 
L 38.28125 8.296875 
L 54.390625 8.296875 
L 54.390625 0 
L 12.40625 0 
z
" id="DejaVuSans-49"/>
      </defs>
      <g transform="translate(192.288647 266.598437)scale(0.1 -0.1)">
       <use xlink:href="#DejaVuSans-8722"/>
       <use x="83.789062" xlink:href="#DejaVuSans-49"/>
      </g>
     </g>
    </g>
    <g id="xtick_5">
     <g id="line2d_9">
      <path clip-path="url(#p50501f3130)" d="M 243.14026 252 
L 243.14026 34.56 
" style="fill:none;stroke:#b0b0b0;stroke-linecap:square;stroke-width:0.8;"/>
     </g>
     <g id="line2d_10">
      <g>
       <use style="stroke:#000000;stroke-width:0.8;" x="243.14026" xlink:href="#me9288635e2" y="252"/>
      </g>
     </g>
     <g id="text_5">
      <!-- 0 -->
      <defs>
       <path d="M 31.78125 66.40625 
Q 24.171875 66.40625 20.328125 58.90625 
Q 16.5 51.421875 16.5 36.375 
Q 16.5 21.390625 20.328125 13.890625 
Q 24.171875 6.390625 31.78125 6.390625 
Q 39.453125 6.390625 43.28125 13.890625 
Q 47.125 21.390625 47.125 36.375 
Q 47.125 51.421875 43.28125 58.90625 
Q 39.453125 66.40625 31.78125 66.40625 
z
M 31.78125 74.21875 
Q 44.046875 74.21875 50.515625 64.515625 
Q 56.984375 54.828125 56.984375 36.375 
Q 56.984375 17.96875 50.515625 8.265625 
Q 44.046875 -1.421875 31.78125 -1.421875 
Q 19.53125 -1.421875 13.0625 8.265625 
Q 6.59375 17.96875 6.59375 36.375 
Q 6.59375 54.828125 13.0625 64.515625 
Q 19.53125 74.21875 31.78125 74.21875 
z
" id="DejaVuSans-48"/>
      </defs>
      <g transform="translate(239.95901 266.598437)scale(0.1 -0.1)">
       <use xlink:href="#DejaVuSans-48"/>
      </g>
     </g>
    </g>
    <g id="xtick_6">
     <g id="line2d_11">
      <path clip-path="url(#p50501f3130)" d="M 286.620779 252 
L 286.620779 34.56 
" style="fill:none;stroke:#b0b0b0;stroke-linecap:square;stroke-width:0.8;"/>
     </g>
     <g id="line2d_12">
      <g>
       <use style="stroke:#000000;stroke-width:0.8;" x="286.620779" xlink:href="#me9288635e2" y="252"/>
      </g>
     </g>
     <g id="text_6">
      <!-- 1 -->
      <g transform="translate(283.439529 266.598437)scale(0.1 -0.1)">
       <use xlink:href="#DejaVuSans-49"/>
      </g>
     </g>
    </g>
    <g id="xtick_7">
     <g id="line2d_13">
      <path clip-path="url(#p50501f3130)" d="M 330.101299 252 
L 330.101299 34.56 
" style="fill:none;stroke:#b0b0b0;stroke-linecap:square;stroke-width:0.8;"/>
     </g>
     <g id="line2d_14">
      <g>
       <use style="stroke:#000000;stroke-width:0.8;" x="330.101299" xlink:href="#me9288635e2" y="252"/>
      </g>
     </g>
     <g id="text_7">
      <!-- 2 -->
      <g transform="translate(326.920049 266.598437)scale(0.1 -0.1)">
       <use xlink:href="#DejaVuSans-50"/>
      </g>
     </g>
    </g>
    <g id="xtick_8">
     <g id="line2d_15">
      <path clip-path="url(#p50501f3130)" d="M 373.581818 252 
L 373.581818 34.56 
" style="fill:none;stroke:#b0b0b0;stroke-linecap:square;stroke-width:0.8;"/>
     </g>
     <g id="line2d_16">
      <g>
       <use style="stroke:#000000;stroke-width:0.8;" x="373.581818" xlink:href="#me9288635e2" y="252"/>
      </g>
     </g>
     <g id="text_8">
      <!-- 3 -->
      <g transform="translate(370.400568 266.598437)scale(0.1 -0.1)">
       <use xlink:href="#DejaVuSans-51"/>
      </g>
     </g>
    </g>
    <g id="text_9">
     <!-- Potential (V) -->
     <defs>
      <path d="M 19.671875 64.796875 
L 19.671875 37.40625 
L 32.078125 37.40625 
Q 38.96875 37.40625 42.71875 40.96875 
Q 46.484375 44.53125 46.484375 51.125 
Q 46.484375 57.671875 42.71875 61.234375 
Q 38.96875 64.796875 32.078125 64.796875 
z
M 9.8125 72.90625 
L 32.078125 72.90625 
Q 44.34375 72.90625 50.609375 67.359375 
Q 56.890625 61.8125 56.890625 51.125 
Q 56.890625 40.328125 50.609375 34.8125 
Q 44.34375 29.296875 32.078125 29.296875 
L 19.671875 29.296875 
L 19.671875 0 
L 9.8125 0 
z
" id="DejaVuSans-80"/>
      <path d="M 30.609375 48.390625 
Q 23.390625 48.390625 19.1875 42.75 
Q 14.984375 37.109375 14.984375 27.296875 
Q 14.984375 17.484375 19.15625 11.84375 
Q 23.34375 6.203125 30.609375 6.203125 
Q 37.796875 6.203125 41.984375 11.859375 
Q 46.1875 17.53125 46.1875 27.296875 
Q 46.1875 37.015625 41.984375 42.703125 
Q 37.796875 48.390625 30.609375 48.390625 
z
M 30.609375 56 
Q 42.328125 56 49.015625 48.375 
Q 55.71875 40.765625 55.71875 27.296875 
Q 55.71875 13.875 49.015625 6.21875 
Q 42.328125 -1.421875 30.609375 -1.421875 
Q 18.84375 -1.421875 12.171875 6.21875 
Q 5.515625 13.875 5.515625 27.296875 
Q 5.515625 40.765625 12.171875 48.375 
Q 18.84375 56 30.609375 56 
z
" id="DejaVuSans-111"/>
      <path d="M 18.3125 70.21875 
L 18.3125 54.6875 
L 36.8125 54.6875 
L 36.8125 47.703125 
L 18.3125 47.703125 
L 18.3125 18.015625 
Q 18.3125 11.328125 20.140625 9.421875 
Q 21.96875 7.515625 27.59375 7.515625 
L 36.8125 7.515625 
L 36.8125 0 
L 27.59375 0 
Q 17.1875 0 13.234375 3.875 
Q 9.28125 7.765625 9.28125 18.015625 
L 9.28125 47.703125 
L 2.6875 47.703125 
L 2.6875 54.6875 
L 9.28125 54.6875 
L 9.28125 70.21875 
z
" id="DejaVuSans-116"/>
      <path d="M 56.203125 29.59375 
L 56.203125 25.203125 
L 14.890625 25.203125 
Q 15.484375 15.921875 20.484375 11.0625 
Q 25.484375 6.203125 34.421875 6.203125 
Q 39.59375 6.203125 44.453125 7.46875 
Q 49.3125 8.734375 54.109375 11.28125 
L 54.109375 2.78125 
Q 49.265625 0.734375 44.1875 -0.34375 
Q 39.109375 -1.421875 33.890625 -1.421875 
Q 20.796875 -1.421875 13.15625 6.1875 
Q 5.515625 13.8125 5.515625 26.8125 
Q 5.515625 40.234375 12.765625 48.109375 
Q 20.015625 56 32.328125 56 
Q 43.359375 56 49.78125 48.890625 
Q 56.203125 41.796875 56.203125 29.59375 
z
M 47.21875 32.234375 
Q 47.125 39.59375 43.09375 43.984375 
Q 39.0625 48.390625 32.421875 48.390625 
Q 24.90625 48.390625 20.390625 44.140625 
Q 15.875 39.890625 15.1875 32.171875 
z
" id="DejaVuSans-101"/>
      <path d="M 54.890625 33.015625 
L 54.890625 0 
L 45.90625 0 
L 45.90625 32.71875 
Q 45.90625 40.484375 42.875 44.328125 
Q 39.84375 48.1875 33.796875 48.1875 
Q 26.515625 48.1875 22.3125 43.546875 
Q 18.109375 38.921875 18.109375 30.90625 
L 18.109375 0 
L 9.078125 0 
L 9.078125 54.6875 
L 18.109375 54.6875 
L 18.109375 46.1875 
Q 21.34375 51.125 25.703125 53.5625 
Q 30.078125 56 35.796875 56 
Q 45.21875 56 50.046875 50.171875 
Q 54.890625 44.34375 54.890625 33.015625 
z
" id="DejaVuSans-110"/>
      <path d="M 9.421875 54.6875 
L 18.40625 54.6875 
L 18.40625 0 
L 9.421875 0 
z
M 9.421875 75.984375 
L 18.40625 75.984375 
L 18.40625 64.59375 
L 9.421875 64.59375 
z
" id="DejaVuSans-105"/>
      <path d="M 34.28125 27.484375 
Q 23.390625 27.484375 19.1875 25 
Q 14.984375 22.515625 14.984375 16.5 
Q 14.984375 11.71875 18.140625 8.90625 
Q 21.296875 6.109375 26.703125 6.109375 
Q 34.1875 6.109375 38.703125 11.40625 
Q 43.21875 16.703125 43.21875 25.484375 
L 43.21875 27.484375 
z
M 52.203125 31.203125 
L 52.203125 0 
L 43.21875 0 
L 43.21875 8.296875 
Q 40.140625 3.328125 35.546875 0.953125 
Q 30.953125 -1.421875 24.3125 -1.421875 
Q 15.921875 -1.421875 10.953125 3.296875 
Q 6 8.015625 6 15.921875 
Q 6 25.140625 12.171875 29.828125 
Q 18.359375 34.515625 30.609375 34.515625 
L 43.21875 34.515625 
L 43.21875 35.40625 
Q 43.21875 41.609375 39.140625 45 
Q 35.0625 48.390625 27.6875 48.390625 
Q 23 48.390625 18.546875 47.265625 
Q 14.109375 46.140625 10.015625 43.890625 
L 10.015625 52.203125 
Q 14.9375 54.109375 19.578125 55.046875 
Q 24.21875 56 28.609375 56 
Q 40.484375 56 46.34375 49.84375 
Q 52.203125 43.703125 52.203125 31.203125 
z
" id="DejaVuSans-97"/>
      <path d="M 9.421875 75.984375 
L 18.40625 75.984375 
L 18.40625 0 
L 9.421875 0 
z
" id="DejaVuSans-108"/>
      <path id="DejaVuSans-32"/>
      <path d="M 31 75.875 
Q 24.46875 64.65625 21.28125 53.65625 
Q 18.109375 42.671875 18.109375 31.390625 
Q 18.109375 20.125 21.3125 9.0625 
Q 24.515625 -2 31 -13.1875 
L 23.1875 -13.1875 
Q 15.875 -1.703125 12.234375 9.375 
Q 8.59375 20.453125 8.59375 31.390625 
Q 8.59375 42.28125 12.203125 53.3125 
Q 15.828125 64.359375 23.1875 75.875 
z
" id="DejaVuSans-40"/>
      <path d="M 28.609375 0 
L 0.78125 72.90625 
L 11.078125 72.90625 
L 34.1875 11.53125 
L 57.328125 72.90625 
L 67.578125 72.90625 
L 39.796875 0 
z
" id="DejaVuSans-86"/>
      <path d="M 8.015625 75.875 
L 15.828125 75.875 
Q 23.140625 64.359375 26.78125 53.3125 
Q 30.421875 42.28125 30.421875 31.390625 
Q 30.421875 20.453125 26.78125 9.375 
Q 23.140625 -1.703125 15.828125 -13.1875 
L 8.015625 -13.1875 
Q 14.5 -2 17.703125 9.0625 
Q 20.90625 20.125 20.90625 31.390625 
Q 20.90625 42.671875 17.703125 53.65625 
Q 14.5 64.65625 8.015625 75.875 
z
" id="DejaVuSans-41"/>
     </defs>
     <g transform="translate(190.409375 280.276563)scale(0.1 -0.1)">
      <use xlink:href="#DejaVuSans-80"/>
      <use x="60.255859" xlink:href="#DejaVuSans-111"/>
      <use x="121.4375" xlink:href="#DejaVuSans-116"/>
      <use x="160.646484" xlink:href="#DejaVuSans-101"/>
      <use x="222.169922" xlink:href="#DejaVuSans-110"/>
      <use x="285.548828" xlink:href="#DejaVuSans-116"/>
      <use x="324.757812" xlink:href="#DejaVuSans-105"/>
      <use x="352.541016" xlink:href="#DejaVuSans-97"/>
      <use x="413.820312" xlink:href="#DejaVuSans-108"/>
      <use x="441.603516" xlink:href="#DejaVuSans-32"/>
      <use x="473.390625" xlink:href="#DejaVuSans-40"/>
      <use x="512.404297" xlink:href="#DejaVuSans-86"/>
      <use x="580.8125" xlink:href="#DejaVuSans-41"/>
     </g>
    </g>
   </g>
   <g id="matplotlib.axis_2">
    <g id="ytick_1">
     <g id="line2d_17">
      <path clip-path="url(#p50501f3130)" d="M 54 242.116364 
L 388.8 242.116364 
" style="fill:none;stroke:#b0b0b0;stroke-linecap:square;stroke-width:0.8;"/>
     </g>
     <g id="line2d_18">
      <defs>
       <path d="M 0 0 
L -3.5 0 
" id="m6dce92d9a4" style="stroke:#000000;stroke-width:0.8;"/>
      </defs>
      <g>
       <use style="stroke:#000000;stroke-width:0.8;" x="54" xlink:href="#m6dce92d9a4" y="242.116364"/>
      </g>
     </g>
     <g id="text_10">
      <!-- 0.0 -->
      <defs>
       <path d="M 10.6875 12.40625 
L 21 12.40625 
L 21 0 
L 10.6875 0 
z
" id="DejaVuSans-46"/>
      </defs>
      <g transform="translate(31.096875 245.915582)scale(0.1 -0.1)">
       <use xlink:href="#DejaVuSans-48"/>
       <use x="63.623047" xlink:href="#DejaVuSans-46"/>
       <use x="95.410156" xlink:href="#DejaVuSans-48"/>
      </g>
     </g>
    </g>
    <g id="ytick_2">
     <g id="line2d_19">
      <path clip-path="url(#p50501f3130)" d="M 54 217.220554 
L 388.8 217.220554 
" style="fill:none;stroke:#b0b0b0;stroke-linecap:square;stroke-width:0.8;"/>
     </g>
     <g id="line2d_20">
      <g>
       <use style="stroke:#000000;stroke-width:0.8;" x="54" xlink:href="#m6dce92d9a4" y="217.220554"/>
      </g>
     </g>
     <g id="text_11">
      <!-- 0.5 -->
      <defs>
       <path d="M 10.796875 72.90625 
L 49.515625 72.90625 
L 49.515625 64.59375 
L 19.828125 64.59375 
L 19.828125 46.734375 
Q 21.96875 47.46875 24.109375 47.828125 
Q 26.265625 48.1875 28.421875 48.1875 
Q 40.625 48.1875 47.75 41.5 
Q 54.890625 34.8125 54.890625 23.390625 
Q 54.890625 11.625 47.5625 5.09375 
Q 40.234375 -1.421875 26.90625 -1.421875 
Q 22.3125 -1.421875 17.546875 -0.640625 
Q 12.796875 0.140625 7.71875 1.703125 
L 7.71875 11.625 
Q 12.109375 9.234375 16.796875 8.0625 
Q 21.484375 6.890625 26.703125 6.890625 
Q 35.15625 6.890625 40.078125 11.328125 
Q 45.015625 15.765625 45.015625 23.390625 
Q 45.015625 31 40.078125 35.4375 
Q 35.15625 39.890625 26.703125 39.890625 
Q 22.75 39.890625 18.8125 39.015625 
Q 14.890625 38.140625 10.796875 36.28125 
z
" id="DejaVuSans-53"/>
      </defs>
      <g transform="translate(31.096875 221.019773)scale(0.1 -0.1)">
       <use xlink:href="#DejaVuSans-48"/>
       <use x="63.623047" xlink:href="#DejaVuSans-46"/>
       <use x="95.410156" xlink:href="#DejaVuSans-53"/>
      </g>
     </g>
    </g>
    <g id="ytick_3">
     <g id="line2d_21">
      <path clip-path="url(#p50501f3130)" d="M 54 192.324745 
L 388.8 192.324745 
" style="fill:none;stroke:#b0b0b0;stroke-linecap:square;stroke-width:0.8;"/>
     </g>
     <g id="line2d_22">
      <g>
       <use style="stroke:#000000;stroke-width:0.8;" x="54" xlink:href="#m6dce92d9a4" y="192.324745"/>
      </g>
     </g>
     <g id="text_12">
      <!-- 1.0 -->
      <g transform="translate(31.096875 196.123963)scale(0.1 -0.1)">
       <use xlink:href="#DejaVuSans-49"/>
       <use x="63.623047" xlink:href="#DejaVuSans-46"/>
       <use x="95.410156" xlink:href="#DejaVuSans-48"/>
      </g>
     </g>
    </g>
    <g id="ytick_4">
     <g id="line2d_23">
      <path clip-path="url(#p50501f3130)" d="M 54 167.428935 
L 388.8 167.428935 
" style="fill:none;stroke:#b0b0b0;stroke-linecap:square;stroke-width:0.8;"/>
     </g>
     <g id="line2d_24">
      <g>
       <use style="stroke:#000000;stroke-width:0.8;" x="54" xlink:href="#m6dce92d9a4" y="167.428935"/>
      </g>
     </g>
     <g id="text_13">
      <!-- 1.5 -->
      <g transform="translate(31.096875 171.228154)scale(0.1 -0.1)">
       <use xlink:href="#DejaVuSans-49"/>
       <use x="63.623047" xlink:href="#DejaVuSans-46"/>
       <use x="95.410156" xlink:href="#DejaVuSans-53"/>
      </g>
     </g>
    </g>
    <g id="ytick_5">
     <g id="line2d_25">
      <path clip-path="url(#p50501f3130)" d="M 54 142.533126 
L 388.8 142.533126 
" style="fill:none;stroke:#b0b0b0;stroke-linecap:square;stroke-width:0.8;"/>
     </g>
     <g id="line2d_26">
      <g>
       <use style="stroke:#000000;stroke-width:0.8;" x="54" xlink:href="#m6dce92d9a4" y="142.533126"/>
      </g>
     </g>
     <g id="text_14">
      <!-- 2.0 -->
      <g transform="translate(31.096875 146.332344)scale(0.1 -0.1)">
       <use xlink:href="#DejaVuSans-50"/>
       <use x="63.623047" xlink:href="#DejaVuSans-46"/>
       <use x="95.410156" xlink:href="#DejaVuSans-48"/>
      </g>
     </g>
    </g>
    <g id="ytick_6">
     <g id="line2d_27">
      <path clip-path="url(#p50501f3130)" d="M 54 117.637316 
L 388.8 117.637316 
" style="fill:none;stroke:#b0b0b0;stroke-linecap:square;stroke-width:0.8;"/>
     </g>
     <g id="line2d_28">
      <g>
       <use style="stroke:#000000;stroke-width:0.8;" x="54" xlink:href="#m6dce92d9a4" y="117.637316"/>
      </g>
     </g>
     <g id="text_15">
      <!-- 2.5 -->
      <g transform="translate(31.096875 121.436535)scale(0.1 -0.1)">
       <use xlink:href="#DejaVuSans-50"/>
       <use x="63.623047" xlink:href="#DejaVuSans-46"/>
       <use x="95.410156" xlink:href="#DejaVuSans-53"/>
      </g>
     </g>
    </g>
    <g id="ytick_7">
     <g id="line2d_29">
      <path clip-path="url(#p50501f3130)" d="M 54 92.741507 
L 388.8 92.741507 
" style="fill:none;stroke:#b0b0b0;stroke-linecap:square;stroke-width:0.8;"/>
     </g>
     <g id="line2d_30">
      <g>
       <use style="stroke:#000000;stroke-width:0.8;" x="54" xlink:href="#m6dce92d9a4" y="92.741507"/>
      </g>
     </g>
     <g id="text_16">
      <!-- 3.0 -->
      <g transform="translate(31.096875 96.540726)scale(0.1 -0.1)">
       <use xlink:href="#DejaVuSans-51"/>
       <use x="63.623047" xlink:href="#DejaVuSans-46"/>
       <use x="95.410156" xlink:href="#DejaVuSans-48"/>
      </g>
     </g>
    </g>
    <g id="ytick_8">
     <g id="line2d_31">
      <path clip-path="url(#p50501f3130)" d="M 54 67.845697 
L 388.8 67.845697 
" style="fill:none;stroke:#b0b0b0;stroke-linecap:square;stroke-width:0.8;"/>
     </g>
     <g id="line2d_32">
      <g>
       <use style="stroke:#000000;stroke-width:0.8;" x="54" xlink:href="#m6dce92d9a4" y="67.845697"/>
      </g>
     </g>
     <g id="text_17">
      <!-- 3.5 -->
      <g transform="translate(31.096875 71.644916)scale(0.1 -0.1)">
       <use xlink:href="#DejaVuSans-51"/>
       <use x="63.623047" xlink:href="#DejaVuSans-46"/>
       <use x="95.410156" xlink:href="#DejaVuSans-53"/>
      </g>
     </g>
    </g>
    <g id="ytick_9">
     <g id="line2d_33">
      <path clip-path="url(#p50501f3130)" d="M 54 42.949888 
L 388.8 42.949888 
" style="fill:none;stroke:#b0b0b0;stroke-linecap:square;stroke-width:0.8;"/>
     </g>
     <g id="line2d_34">
      <g>
       <use style="stroke:#000000;stroke-width:0.8;" x="54" xlink:href="#m6dce92d9a4" y="42.949888"/>
      </g>
     </g>
     <g id="text_18">
      <!-- 4.0 -->
      <g transform="translate(31.096875 46.749107)scale(0.1 -0.1)">
       <use xlink:href="#DejaVuSans-52"/>
       <use x="63.623047" xlink:href="#DejaVuSans-46"/>
       <use x="95.410156" xlink:href="#DejaVuSans-48"/>
      </g>
     </g>
    </g>
    <g id="text_19">
     <!-- Photoelectric Current (Amps) -->
     <defs>
      <path d="M 54.890625 33.015625 
L 54.890625 0 
L 45.90625 0 
L 45.90625 32.71875 
Q 45.90625 40.484375 42.875 44.328125 
Q 39.84375 48.1875 33.796875 48.1875 
Q 26.515625 48.1875 22.3125 43.546875 
Q 18.109375 38.921875 18.109375 30.90625 
L 18.109375 0 
L 9.078125 0 
L 9.078125 75.984375 
L 18.109375 75.984375 
L 18.109375 46.1875 
Q 21.34375 51.125 25.703125 53.5625 
Q 30.078125 56 35.796875 56 
Q 45.21875 56 50.046875 50.171875 
Q 54.890625 44.34375 54.890625 33.015625 
z
" id="DejaVuSans-104"/>
      <path d="M 48.78125 52.59375 
L 48.78125 44.1875 
Q 44.96875 46.296875 41.140625 47.34375 
Q 37.3125 48.390625 33.40625 48.390625 
Q 24.65625 48.390625 19.8125 42.84375 
Q 14.984375 37.3125 14.984375 27.296875 
Q 14.984375 17.28125 19.8125 11.734375 
Q 24.65625 6.203125 33.40625 6.203125 
Q 37.3125 6.203125 41.140625 7.25 
Q 44.96875 8.296875 48.78125 10.40625 
L 48.78125 2.09375 
Q 45.015625 0.34375 40.984375 -0.53125 
Q 36.96875 -1.421875 32.421875 -1.421875 
Q 20.0625 -1.421875 12.78125 6.34375 
Q 5.515625 14.109375 5.515625 27.296875 
Q 5.515625 40.671875 12.859375 48.328125 
Q 20.21875 56 33.015625 56 
Q 37.15625 56 41.109375 55.140625 
Q 45.0625 54.296875 48.78125 52.59375 
z
" id="DejaVuSans-99"/>
      <path d="M 41.109375 46.296875 
Q 39.59375 47.171875 37.8125 47.578125 
Q 36.03125 48 33.890625 48 
Q 26.265625 48 22.1875 43.046875 
Q 18.109375 38.09375 18.109375 28.8125 
L 18.109375 0 
L 9.078125 0 
L 9.078125 54.6875 
L 18.109375 54.6875 
L 18.109375 46.1875 
Q 20.953125 51.171875 25.484375 53.578125 
Q 30.03125 56 36.53125 56 
Q 37.453125 56 38.578125 55.875 
Q 39.703125 55.765625 41.0625 55.515625 
z
" id="DejaVuSans-114"/>
      <path d="M 64.40625 67.28125 
L 64.40625 56.890625 
Q 59.421875 61.53125 53.78125 63.8125 
Q 48.140625 66.109375 41.796875 66.109375 
Q 29.296875 66.109375 22.65625 58.46875 
Q 16.015625 50.828125 16.015625 36.375 
Q 16.015625 21.96875 22.65625 14.328125 
Q 29.296875 6.6875 41.796875 6.6875 
Q 48.140625 6.6875 53.78125 8.984375 
Q 59.421875 11.28125 64.40625 15.921875 
L 64.40625 5.609375 
Q 59.234375 2.09375 53.4375 0.328125 
Q 47.65625 -1.421875 41.21875 -1.421875 
Q 24.65625 -1.421875 15.125 8.703125 
Q 5.609375 18.84375 5.609375 36.375 
Q 5.609375 53.953125 15.125 64.078125 
Q 24.65625 74.21875 41.21875 74.21875 
Q 47.75 74.21875 53.53125 72.484375 
Q 59.328125 70.75 64.40625 67.28125 
z
" id="DejaVuSans-67"/>
      <path d="M 8.5 21.578125 
L 8.5 54.6875 
L 17.484375 54.6875 
L 17.484375 21.921875 
Q 17.484375 14.15625 20.5 10.265625 
Q 23.53125 6.390625 29.59375 6.390625 
Q 36.859375 6.390625 41.078125 11.03125 
Q 45.3125 15.671875 45.3125 23.6875 
L 45.3125 54.6875 
L 54.296875 54.6875 
L 54.296875 0 
L 45.3125 0 
L 45.3125 8.40625 
Q 42.046875 3.421875 37.71875 1 
Q 33.40625 -1.421875 27.6875 -1.421875 
Q 18.265625 -1.421875 13.375 4.4375 
Q 8.5 10.296875 8.5 21.578125 
z
M 31.109375 56 
z
" id="DejaVuSans-117"/>
      <path d="M 34.1875 63.1875 
L 20.796875 26.90625 
L 47.609375 26.90625 
z
M 28.609375 72.90625 
L 39.796875 72.90625 
L 67.578125 0 
L 57.328125 0 
L 50.6875 18.703125 
L 17.828125 18.703125 
L 11.1875 0 
L 0.78125 0 
z
" id="DejaVuSans-65"/>
      <path d="M 52 44.1875 
Q 55.375 50.25 60.0625 53.125 
Q 64.75 56 71.09375 56 
Q 79.640625 56 84.28125 50.015625 
Q 88.921875 44.046875 88.921875 33.015625 
L 88.921875 0 
L 79.890625 0 
L 79.890625 32.71875 
Q 79.890625 40.578125 77.09375 44.375 
Q 74.3125 48.1875 68.609375 48.1875 
Q 61.625 48.1875 57.5625 43.546875 
Q 53.515625 38.921875 53.515625 30.90625 
L 53.515625 0 
L 44.484375 0 
L 44.484375 32.71875 
Q 44.484375 40.625 41.703125 44.40625 
Q 38.921875 48.1875 33.109375 48.1875 
Q 26.21875 48.1875 22.15625 43.53125 
Q 18.109375 38.875 18.109375 30.90625 
L 18.109375 0 
L 9.078125 0 
L 9.078125 54.6875 
L 18.109375 54.6875 
L 18.109375 46.1875 
Q 21.1875 51.21875 25.484375 53.609375 
Q 29.78125 56 35.6875 56 
Q 41.65625 56 45.828125 52.96875 
Q 50 49.953125 52 44.1875 
z
" id="DejaVuSans-109"/>
      <path d="M 18.109375 8.203125 
L 18.109375 -20.796875 
L 9.078125 -20.796875 
L 9.078125 54.6875 
L 18.109375 54.6875 
L 18.109375 46.390625 
Q 20.953125 51.265625 25.265625 53.625 
Q 29.59375 56 35.59375 56 
Q 45.5625 56 51.78125 48.09375 
Q 58.015625 40.1875 58.015625 27.296875 
Q 58.015625 14.40625 51.78125 6.484375 
Q 45.5625 -1.421875 35.59375 -1.421875 
Q 29.59375 -1.421875 25.265625 0.953125 
Q 20.953125 3.328125 18.109375 8.203125 
z
M 48.6875 27.296875 
Q 48.6875 37.203125 44.609375 42.84375 
Q 40.53125 48.484375 33.40625 48.484375 
Q 26.265625 48.484375 22.1875 42.84375 
Q 18.109375 37.203125 18.109375 27.296875 
Q 18.109375 17.390625 22.1875 11.75 
Q 26.265625 6.109375 33.40625 6.109375 
Q 40.53125 6.109375 44.609375 11.75 
Q 48.6875 17.390625 48.6875 27.296875 
z
" id="DejaVuSans-112"/>
      <path d="M 44.28125 53.078125 
L 44.28125 44.578125 
Q 40.484375 46.53125 36.375 47.5 
Q 32.28125 48.484375 27.875 48.484375 
Q 21.1875 48.484375 17.84375 46.4375 
Q 14.5 44.390625 14.5 40.28125 
Q 14.5 37.15625 16.890625 35.375 
Q 19.28125 33.59375 26.515625 31.984375 
L 29.59375 31.296875 
Q 39.15625 29.25 43.1875 25.515625 
Q 47.21875 21.78125 47.21875 15.09375 
Q 47.21875 7.46875 41.1875 3.015625 
Q 35.15625 -1.421875 24.609375 -1.421875 
Q 20.21875 -1.421875 15.453125 -0.5625 
Q 10.6875 0.296875 5.421875 2 
L 5.421875 11.28125 
Q 10.40625 8.6875 15.234375 7.390625 
Q 20.0625 6.109375 24.8125 6.109375 
Q 31.15625 6.109375 34.5625 8.28125 
Q 37.984375 10.453125 37.984375 14.40625 
Q 37.984375 18.0625 35.515625 20.015625 
Q 33.0625 21.96875 24.703125 23.78125 
L 21.578125 24.515625 
Q 13.234375 26.265625 9.515625 29.90625 
Q 5.8125 33.546875 5.8125 39.890625 
Q 5.8125 47.609375 11.28125 51.796875 
Q 16.75 56 26.8125 56 
Q 31.78125 56 36.171875 55.265625 
Q 40.578125 54.546875 44.28125 53.078125 
z
" id="DejaVuSans-115"/>
     </defs>
     <g transform="translate(25.017187 216.11125)rotate(-90)scale(0.1 -0.1)">
      <use xlink:href="#DejaVuSans-80"/>
      <use x="60.302734" xlink:href="#DejaVuSans-104"/>
      <use x="123.681641" xlink:href="#DejaVuSans-111"/>
      <use x="184.863281" xlink:href="#DejaVuSans-116"/>
      <use x="224.072266" xlink:href="#DejaVuSans-111"/>
      <use x="285.253906" xlink:href="#DejaVuSans-101"/>
      <use x="346.777344" xlink:href="#DejaVuSans-108"/>
      <use x="374.560547" xlink:href="#DejaVuSans-101"/>
      <use x="436.083984" xlink:href="#DejaVuSans-99"/>
      <use x="491.064453" xlink:href="#DejaVuSans-116"/>
      <use x="530.273438" xlink:href="#DejaVuSans-114"/>
      <use x="571.386719" xlink:href="#DejaVuSans-105"/>
      <use x="599.169922" xlink:href="#DejaVuSans-99"/>
      <use x="654.150391" xlink:href="#DejaVuSans-32"/>
      <use x="685.9375" xlink:href="#DejaVuSans-67"/>
      <use x="755.761719" xlink:href="#DejaVuSans-117"/>
      <use x="819.140625" xlink:href="#DejaVuSans-114"/>
      <use x="860.238281" xlink:href="#DejaVuSans-114"/>
      <use x="901.320312" xlink:href="#DejaVuSans-101"/>
      <use x="962.84375" xlink:href="#DejaVuSans-110"/>
      <use x="1026.222656" xlink:href="#DejaVuSans-116"/>
      <use x="1065.431641" xlink:href="#DejaVuSans-32"/>
      <use x="1097.21875" xlink:href="#DejaVuSans-40"/>
      <use x="1136.232422" xlink:href="#DejaVuSans-65"/>
      <use x="1204.640625" xlink:href="#DejaVuSans-109"/>
      <use x="1302.052734" xlink:href="#DejaVuSans-112"/>
      <use x="1365.529297" xlink:href="#DejaVuSans-115"/>
      <use x="1417.628906" xlink:href="#DejaVuSans-41"/>
     </g>
    </g>
    <g id="text_20">
     <!-- 1e−8 -->
     <defs>
      <path d="M 31.78125 34.625 
Q 24.75 34.625 20.71875 30.859375 
Q 16.703125 27.09375 16.703125 20.515625 
Q 16.703125 13.921875 20.71875 10.15625 
Q 24.75 6.390625 31.78125 6.390625 
Q 38.8125 6.390625 42.859375 10.171875 
Q 46.921875 13.96875 46.921875 20.515625 
Q 46.921875 27.09375 42.890625 30.859375 
Q 38.875 34.625 31.78125 34.625 
z
M 21.921875 38.8125 
Q 15.578125 40.375 12.03125 44.71875 
Q 8.5 49.078125 8.5 55.328125 
Q 8.5 64.0625 14.71875 69.140625 
Q 20.953125 74.21875 31.78125 74.21875 
Q 42.671875 74.21875 48.875 69.140625 
Q 55.078125 64.0625 55.078125 55.328125 
Q 55.078125 49.078125 51.53125 44.71875 
Q 48 40.375 41.703125 38.8125 
Q 48.828125 37.15625 52.796875 32.3125 
Q 56.78125 27.484375 56.78125 20.515625 
Q 56.78125 9.90625 50.3125 4.234375 
Q 43.84375 -1.421875 31.78125 -1.421875 
Q 19.734375 -1.421875 13.25 4.234375 
Q 6.78125 9.90625 6.78125 20.515625 
Q 6.78125 27.484375 10.78125 32.3125 
Q 14.796875 37.15625 21.921875 38.8125 
z
M 18.3125 54.390625 
Q 18.3125 48.734375 21.84375 45.5625 
Q 25.390625 42.390625 31.78125 42.390625 
Q 38.140625 42.390625 41.71875 45.5625 
Q 45.3125 48.734375 45.3125 54.390625 
Q 45.3125 60.0625 41.71875 63.234375 
Q 38.140625 66.40625 31.78125 66.40625 
Q 25.390625 66.40625 21.84375 63.234375 
Q 18.3125 60.0625 18.3125 54.390625 
z
" id="DejaVuSans-56"/>
     </defs>
     <g transform="translate(54 31.56)scale(0.1 -0.1)">
      <use xlink:href="#DejaVuSans-49"/>
      <use x="63.623047" xlink:href="#DejaVuSans-101"/>
      <use x="125.146484" xlink:href="#DejaVuSans-8722"/>
      <use x="208.935547" xlink:href="#DejaVuSans-56"/>
     </g>
    </g>
   </g>
   <g id="line2d_35">
    <path clip-path="url(#p50501f3130)" d="M 69.218182 242.116364 
L 177.04987 242.00732 
L 183.571948 241.748404 
L 191.398442 241.095635 
L 196.616104 240.398553 
L 200.529351 239.711428 
L 206.616623 238.367055 
L 211.399481 237.037619 
L 213.573506 236.440119 
L 220.53039 233.950538 
L 221.834805 233.452622 
L 224.008831 232.606164 
L 231.400519 229.120751 
L 233.574545 227.975544 
L 234.878961 227.328253 
L 235.748571 226.780545 
L 236.183377 226.63117 
L 237.052987 226.033671 
L 237.922597 225.585546 
L 239.227013 224.589714 
L 239.661818 224.539922 
L 240.966234 223.693465 
L 241.835844 222.996382 
L 243.575065 222.149924 
L 244.444675 221.552425 
L 245.314286 220.954926 
L 245.749091 220.805551 
L 247.488312 219.510969 
L 247.923117 219.361594 
L 252.705974 216.025555 
L 254.01039 214.979931 
L 254.445195 214.63139 
L 254.88 214.681182 
L 255.74961 214.083682 
L 258.793247 212.042226 
L 259.228052 211.843059 
L 260.097662 211.096185 
L 262.271688 209.602436 
L 262.706494 209.502853 
L 263.141299 209.204104 
L 264.010909 208.357646 
L 264.445714 208.307854 
L 265.315325 207.710355 
L 266.184935 207.162647 
L 267.054545 206.365981 
L 267.924156 206.01744 
L 268.358961 205.668899 
L 268.793766 205.021608 
L 269.663377 204.374316 
L 270.098182 204.4739 
L 272.707013 202.581818 
L 273.576623 201.635777 
L 274.011429 201.785152 
L 275.315844 200.839112 
L 276.185455 200.142029 
L 276.62026 199.843279 
L 277.055065 199.693904 
L 278.794286 198.200156 
L 279.229091 198.200156 
L 280.098701 197.552865 
L 280.968312 196.855782 
L 281.837922 196.009324 
L 283.142338 195.511408 
L 283.577143 194.9637 
L 286.185974 192.972036 
L 287.055584 192.324745 
L 287.49039 191.826828 
L 287.925195 190.830996 
L 288.36 190.830996 
L 288.794805 190.33308 
L 289.664416 190.33308 
L 290.099221 189.835164 
L 290.534026 189.835164 
L 291.403636 188.839331 
L 291.838442 188.839331 
L 292.708052 187.843499 
L 293.142857 187.843499 
L 294.882078 185.851834 
L 295.751688 185.851834 
L 297.490909 183.860169 
L 297.925714 183.860169 
L 298.795325 182.864337 
L 299.23013 182.864337 
L 300.534545 181.370589 
L 300.969351 180.374756 
L 301.404156 180.872672 
L 301.838961 180.872672 
L 303.578182 178.881008 
L 304.012987 178.881008 
L 306.187013 176.391427 
L 307.056623 176.391427 
L 310.10026 172.906013 
L 310.96987 172.906013 
L 311.404675 171.412265 
L 311.839481 171.412265 
L 312.274286 170.914349 
L 312.709091 170.914349 
L 313.143896 169.918516 
L 313.578701 170.416432 
L 314.013506 168.922684 
L 314.448312 169.4206 
L 315.752727 167.926851 
L 316.187532 167.926851 
L 317.057143 166.931019 
L 317.491948 165.43727 
L 317.926753 166.433103 
L 319.665974 164.441438 
L 320.100779 164.441438 
L 320.535584 163.445606 
L 320.97039 163.445606 
L 321.405195 162.449773 
L 321.84 162.449773 
L 322.274805 161.453941 
L 322.70961 161.453941 
L 323.144416 160.458109 
L 323.579221 160.458109 
L 324.014026 159.960192 
L 324.448831 159.960192 
L 324.883636 158.96436 
L 325.318442 158.96436 
L 325.753247 157.968528 
L 326.188052 157.968528 
L 326.622857 156.474779 
L 327.057662 157.470611 
L 327.927273 156.474779 
L 328.362078 156.474779 
L 328.796883 154.98103 
L 329.231688 155.478947 
L 329.666494 154.483114 
L 330.101299 154.483114 
L 330.536104 153.487282 
L 331.405714 153.487282 
L 331.840519 152.989366 
L 332.275325 151.495617 
L 332.71013 151.993533 
L 333.144935 151.993533 
L 333.57974 150.997701 
L 334.014545 151.495617 
L 334.449351 150.499785 
L 334.884156 150.001869 
L 335.318961 150.001869 
L 335.753766 149.006036 
L 336.188571 149.503952 
L 337.927792 147.512288 
L 338.362597 146.018539 
L 338.797403 147.014371 
L 339.232208 146.516455 
L 339.667013 145.520623 
L 340.101818 145.520623 
L 340.536623 144.52479 
L 341.406234 145.520623 
L 341.841039 144.52479 
L 342.275844 144.026874 
L 342.710649 143.031042 
L 343.145455 142.533126 
L 343.58026 141.537293 
L 344.44987 140.541461 
L 344.884675 140.541461 
L 345.319481 141.039377 
L 345.754286 141.039377 
L 346.189091 140.541461 
L 346.623896 139.545629 
L 347.058701 139.545629 
L 349.667532 136.558131 
L 350.102338 135.562299 
L 350.537143 135.562299 
L 350.971948 136.060215 
L 351.841558 135.064383 
L 352.276364 134.06855 
L 352.711169 133.570634 
L 353.580779 133.570634 
L 355.32 131.57897 
L 355.754805 132.076886 
L 356.18961 131.081053 
L 357.928831 129.089389 
L 358.363636 128.093556 
L 358.798442 128.093556 
L 359.233247 127.59564 
L 359.668052 127.59564 
L 360.537662 126.599808 
L 361.407273 124.608143 
L 361.842078 124.110227 
L 362.276883 124.110227 
L 362.711688 124.608143 
L 363.146494 124.608143 
L 364.885714 122.616478 
L 365.320519 122.616478 
L 365.755325 121.620646 
L 366.19013 121.12273 
L 366.624935 121.12273 
L 367.05974 120.624813 
L 367.494545 120.624813 
L 368.798961 119.131065 
L 369.233766 119.131065 
L 370.538182 117.637316 
L 370.972987 117.637316 
L 371.407792 117.1394 
L 371.842597 116.143568 
L 372.712208 116.143568 
L 373.147013 115.645651 
L 373.581818 114.649819 
L 373.581818 114.649819 
" style="fill:none;stroke:#92c6ff;stroke-linecap:square;stroke-width:1.5;"/>
   </g>
   <g id="line2d_36">
    <path clip-path="url(#p50501f3130)" d="M 69.218182 242.116364 
L 190.528831 242.017776 
L 197.050909 241.686164 
L 201.833766 241.24501 
L 205.747013 240.707261 
L 210.964675 239.721387 
L 214.877922 238.720575 
L 218.791169 237.580347 
L 223.574026 235.892411 
L 225.748052 234.996162 
L 227.052468 234.448454 
L 234.009351 231.162207 
L 235.313766 230.465125 
L 236.183377 230.066792 
L 239.227013 228.274294 
L 240.096623 227.676794 
L 241.401039 226.880128 
L 242.270649 226.282629 
L 247.488312 222.598049 
L 248.357922 222.00055 
L 249.662338 221.004717 
L 250.966753 219.909302 
L 251.836364 219.212219 
L 252.705974 218.415553 
L 253.575584 217.917637 
L 258.358442 213.635558 
L 259.228052 212.988267 
L 262.271688 210.100353 
L 263.576104 208.706187 
L 264.880519 207.610772 
L 266.184935 206.067232 
L 266.61974 205.917857 
L 270.098182 202.482235 
L 272.707013 200.241612 
L 273.576623 199.444946 
L 274.446234 198.449114 
L 277.48987 195.312242 
L 277.924675 195.113075 
L 279.663896 193.42016 
L 281.403117 191.328912 
L 281.837922 191.328912 
L 282.272727 190.33308 
L 282.707532 189.835164 
L 283.142338 189.835164 
L 283.577143 189.337248 
L 284.011948 189.337248 
L 288.794805 183.860169 
L 289.22961 183.860169 
L 290.099221 182.864337 
L 290.534026 182.864337 
L 291.403636 181.868505 
L 291.838442 180.872672 
L 292.708052 179.87684 
L 293.142857 179.87684 
L 293.577662 178.881008 
L 294.882078 177.387259 
L 295.316883 177.387259 
L 297.490909 174.897678 
L 297.925714 173.901846 
L 298.360519 173.403929 
L 298.795325 173.403929 
L 301.404156 170.416432 
L 301.838961 170.416432 
L 302.708571 169.4206 
L 303.143377 168.424768 
L 304.012987 167.428935 
L 304.447792 167.428935 
L 304.882597 166.931019 
L 305.317403 165.935187 
L 305.752208 165.935187 
L 306.187013 165.43727 
L 306.621818 164.441438 
L 307.056623 163.943522 
L 307.491429 163.943522 
L 308.361039 162.947689 
L 308.795844 161.951857 
L 309.230649 161.951857 
L 309.665455 161.453941 
L 310.10026 160.458109 
L 310.535065 160.458109 
L 311.839481 158.96436 
L 312.274286 157.968528 
L 312.709091 157.968528 
L 313.578701 156.972695 
L 314.013506 155.976863 
L 314.448312 155.976863 
L 315.317922 154.98103 
L 315.752727 153.985198 
L 316.187532 154.483114 
L 316.622338 153.487282 
L 317.057143 152.989366 
L 317.491948 151.993533 
L 317.926753 152.49145 
L 318.361558 151.993533 
L 318.796364 150.997701 
L 319.231169 150.499785 
L 319.665974 150.499785 
L 320.535584 148.50812 
L 320.97039 148.50812 
L 321.405195 148.010204 
L 321.84 147.014371 
L 322.274805 147.014371 
L 323.144416 146.018539 
L 323.579221 146.018539 
L 324.014026 145.022707 
L 325.318442 143.528958 
L 325.753247 143.528958 
L 326.188052 143.031042 
L 326.622857 142.03521 
L 327.492468 141.039377 
L 327.927273 139.545629 
L 328.362078 139.545629 
L 329.666494 138.05188 
L 330.101299 138.05188 
L 330.536104 137.553964 
L 330.970909 136.558131 
L 331.840519 135.562299 
L 332.71013 135.562299 
L 333.144935 135.064383 
L 333.57974 134.06855 
L 334.014545 134.06855 
L 334.449351 133.570634 
L 334.884156 132.574802 
L 336.188571 131.081053 
L 336.623377 130.085221 
L 337.058182 129.587305 
L 337.927792 129.587305 
L 338.797403 128.591472 
L 339.667013 126.599808 
L 340.101818 126.101891 
L 340.536623 125.106059 
L 340.971429 124.608143 
L 341.406234 125.106059 
L 343.145455 123.114394 
L 343.58026 122.118562 
L 344.015065 121.620646 
L 344.44987 121.620646 
L 345.319481 120.624813 
L 345.754286 120.624813 
L 346.189091 120.126897 
L 346.623896 119.131065 
L 347.493506 119.131065 
L 347.928312 117.637316 
L 349.667532 115.645651 
L 350.102338 115.645651 
L 350.537143 114.649819 
L 351.406753 113.653987 
L 351.841558 112.658154 
L 352.276364 112.160238 
L 352.711169 112.658154 
L 353.145974 111.662322 
L 354.015584 110.66649 
L 354.45039 109.670657 
L 354.885195 109.172741 
L 355.32 109.172741 
L 355.754805 109.670657 
L 356.18961 108.674825 
L 358.363636 106.185244 
L 358.798442 106.185244 
L 359.233247 105.189411 
L 359.668052 104.691495 
L 360.102857 104.691495 
L 360.537662 103.695663 
L 361.407273 102.699831 
L 361.842078 101.703998 
L 363.146494 100.21025 
L 364.016104 100.21025 
L 364.885714 99.214417 
L 365.320519 98.218585 
L 366.19013 97.222752 
L 366.624935 97.222752 
L 368.364156 95.231088 
L 368.798961 94.235255 
L 369.233766 93.737339 
L 370.103377 93.737339 
L 371.407792 92.243591 
L 372.277403 90.251926 
L 372.712208 89.75401 
L 373.147013 89.75401 
L 373.581818 89.256093 
L 373.581818 89.256093 
" style="fill:none;stroke:#97f0aa;stroke-linecap:square;stroke-width:1.5;"/>
   </g>
   <g id="line2d_37">
    <path clip-path="url(#p50501f3130)" d="M 69.218182 242.116364 
L 199.224935 242.006822 
L 204.442597 241.641352 
L 208.355844 241.145427 
L 212.269091 240.383615 
L 215.747532 239.452512 
L 219.660779 238.103159 
L 224.878442 235.892411 
L 226.617662 234.996162 
L 227.922078 234.299079 
L 233.13974 231.211999 
L 237.487792 228.124919 
L 237.922597 227.776377 
L 238.357403 227.577211 
L 243.14026 223.643673 
L 244.00987 222.797215 
L 244.879481 222.00055 
L 248.792727 218.266178 
L 250.531948 216.224722 
L 251.401558 215.179098 
L 257.054026 208.606604 
L 257.488831 207.809938 
L 260.097662 204.722858 
L 262.706494 201.038278 
L 264.010909 199.295571 
L 264.445714 198.847447 
L 266.184935 196.258283 
L 268.793766 192.573703 
L 269.228571 191.826828 
L 271.402597 189.337248 
L 272.272208 187.345583 
L 274.881039 184.358086 
L 275.315844 183.362253 
L 277.055065 181.370589 
L 277.48987 180.374756 
L 277.924675 179.87684 
L 278.359481 178.881008 
L 278.794286 178.881008 
L 279.229091 178.383091 
L 279.663896 177.387259 
L 282.707532 173.901846 
L 283.142338 172.906013 
L 284.011948 171.910181 
L 284.446753 170.914349 
L 285.751169 169.4206 
L 286.185974 168.424768 
L 286.620779 167.926851 
L 287.055584 167.926851 
L 287.49039 166.931019 
L 287.925195 166.931019 
L 288.36 165.43727 
L 288.794805 165.43727 
L 289.22961 163.943522 
L 289.664416 163.943522 
L 290.099221 163.445606 
L 290.968831 161.453941 
L 291.403636 161.453941 
L 291.838442 160.458109 
L 292.273247 159.960192 
L 292.708052 158.96436 
L 293.142857 158.96436 
L 293.577662 157.968528 
L 294.447273 156.972695 
L 294.882078 155.976863 
L 296.186494 154.483114 
L 296.621299 153.487282 
L 297.056104 152.989366 
L 297.490909 152.989366 
L 297.925714 152.49145 
L 298.795325 150.499785 
L 299.664935 149.503952 
L 300.534545 147.512288 
L 300.969351 147.512288 
L 302.273766 144.52479 
L 302.708571 144.52479 
L 303.578182 142.533126 
L 304.012987 142.533126 
L 304.447792 142.03521 
L 304.882597 141.039377 
L 305.752208 140.043545 
L 306.187013 139.047712 
L 307.491429 137.553964 
L 307.926234 136.558131 
L 308.361039 136.060215 
L 309.230649 134.06855 
L 310.535065 132.574802 
L 311.404675 130.583137 
L 311.839481 130.085221 
L 312.274286 130.085221 
L 313.143896 129.089389 
L 313.578701 128.093556 
L 314.448312 127.097724 
L 315.317922 125.106059 
L 316.187532 124.110227 
L 317.057143 122.118562 
L 318.796364 120.126897 
L 319.231169 119.131065 
L 319.665974 118.633149 
L 320.100779 117.637316 
L 320.535584 117.637316 
L 320.97039 117.1394 
L 321.405195 116.143568 
L 323.579221 113.653987 
L 324.448831 111.662322 
L 324.883636 111.164406 
L 325.753247 109.172741 
L 326.622857 108.176909 
L 327.057662 108.176909 
L 327.492468 107.181076 
L 327.927273 106.68316 
L 328.362078 105.687328 
L 328.796883 105.189411 
L 329.231688 104.193579 
L 329.666494 104.193579 
L 330.536104 103.197747 
L 331.405714 101.206082 
L 331.840519 101.206082 
L 332.71013 99.214417 
L 334.014545 97.720669 
L 334.449351 96.724836 
L 334.884156 96.22692 
L 335.318961 96.22692 
L 336.188571 95.231088 
L 336.623377 94.235255 
L 337.058182 92.741507 
L 337.492987 92.243591 
L 337.927792 91.247758 
L 338.362597 91.247758 
L 339.667013 89.75401 
L 340.536623 87.762345 
L 340.971429 87.762345 
L 342.275844 86.268596 
L 342.710649 85.272764 
L 343.145455 83.779015 
L 343.58026 83.281099 
L 344.015065 83.281099 
L 344.44987 82.783183 
L 345.319481 80.791518 
L 345.754286 80.293602 
L 346.623896 80.293602 
L 347.493506 79.29777 
L 348.363117 77.306105 
L 348.797922 77.306105 
L 349.232727 76.310272 
L 350.537143 74.816524 
L 351.406753 72.824859 
L 352.276364 71.829027 
L 352.711169 71.829027 
L 353.580779 70.833194 
L 355.32 66.849865 
L 355.754805 66.351949 
L 356.18961 66.849865 
L 357.494026 65.356116 
L 357.928831 64.360284 
L 358.363636 64.360284 
L 360.102857 62.368619 
L 360.537662 61.372787 
L 360.972468 59.879038 
L 361.407273 59.879038 
L 361.842078 59.381122 
L 362.276883 58.38529 
L 362.711688 57.887373 
L 363.146494 56.891541 
L 364.016104 55.895709 
L 364.450909 55.895709 
L 364.885714 55.397793 
L 365.320519 54.40196 
L 366.19013 53.406128 
L 366.624935 53.406128 
L 367.05974 51.912379 
L 368.798961 49.920714 
L 369.233766 48.924882 
L 370.103377 47.92905 
L 370.538182 48.426966 
L 371.842597 46.933217 
L 372.277403 45.439469 
L 372.712208 44.941553 
L 373.147013 44.941553 
L 373.581818 44.443636 
L 373.581818 44.443636 
" style="fill:none;stroke:#ff9f9a;stroke-linecap:square;stroke-width:1.5;"/>
   </g>
   <g id="line2d_38">
    <path clip-path="url(#p50501f3130)" d="M 69.218182 242.116364 
L 223.139221 242.008814 
L 243.14026 241.379448 
L 264.010909 240.084866 
L 275.315844 239.148783 
L 278.359481 238.924721 
L 281.403117 238.675763 
L 297.490909 237.485743 
L 301.838961 237.191973 
L 306.187013 236.888244 
L 307.926234 236.78866 
L 311.404675 236.489911 
L 314.013506 236.390327 
L 317.491948 236.091578 
L 320.100779 235.991995 
L 322.70961 235.792828 
L 325.318442 235.693245 
L 328.362078 235.444287 
L 330.101299 235.344703 
L 332.275325 235.195329 
L 334.884156 235.095745 
L 338.797403 234.747204 
L 341.406234 234.647621 
L 344.015065 234.448454 
L 346.623896 234.348871 
L 349.667532 234.099913 
L 352.711169 234.00033 
L 355.754805 233.751372 
L 358.363636 233.651788 
L 362.711688 233.253455 
L 365.755325 233.153872 
L 368.364156 232.954706 
L 369.233766 232.954706 
L 370.972987 232.855123 
L 373.581818 232.606164 
L 373.581818 232.606164 
" style="fill:none;stroke:#d0bbff;stroke-linecap:square;stroke-width:1.5;"/>
   </g>
   <g id="line2d_39">
    <path clip-path="url(#p50501f3130)" d="M 69.218182 242.116364 
L 222.26961 242.005826 
L 226.182857 241.688156 
L 229.226494 241.210156 
L 231.835325 240.562865 
L 235.748571 239.258325 
L 240.096623 237.401097 
L 246.618701 233.950538 
L 247.923117 233.153872 
L 249.662338 232.058457 
L 256.619221 227.178878 
L 257.923636 226.033671 
L 263.576104 220.705967 
L 277.055065 205.121191 
L 277.924675 203.8764 
L 279.229091 202.532027 
L 280.533506 201.187653 
L 281.837922 199.942862 
L 282.272727 199.395155 
L 282.707532 199.096405 
L 283.577143 197.951198 
L 284.446753 197.054948 
L 284.881558 196.706407 
L 287.055584 194.266618 
L 287.925195 193.619327 
L 289.22961 192.324745 
L 290.968831 190.33308 
L 291.403636 190.33308 
L 293.142857 188.341415 
L 293.577662 188.341415 
L 294.447273 187.345583 
L 294.882078 187.345583 
L 298.795325 182.864337 
L 299.23013 182.864337 
L 299.664935 182.366421 
L 300.09974 182.366421 
L 300.534545 181.868505 
L 300.969351 181.868505 
L 301.838961 180.872672 
L 302.273766 180.872672 
L 303.578182 179.378924 
L 304.012987 179.378924 
L 305.752208 177.387259 
L 306.187013 177.387259 
L 306.621818 176.889343 
L 307.056623 176.889343 
L 309.230649 174.399762 
L 310.10026 174.399762 
L 310.96987 173.403929 
L 311.404675 173.403929 
L 311.839481 172.906013 
L 312.274286 171.910181 
L 312.709091 171.910181 
L 313.143896 171.412265 
L 313.578701 171.412265 
L 314.013506 170.914349 
L 314.448312 170.914349 
L 315.317922 169.918516 
L 315.752727 169.918516 
L 316.187532 169.4206 
L 317.057143 169.4206 
L 317.926753 168.424768 
L 318.361558 168.424768 
L 319.231169 167.428935 
L 319.665974 167.428935 
L 320.100779 166.433103 
L 320.535584 165.935187 
L 320.97039 166.433103 
L 321.405195 165.43727 
L 321.84 165.43727 
L 322.274805 164.939354 
L 322.70961 164.939354 
L 323.144416 163.943522 
L 324.014026 163.943522 
L 324.883636 162.947689 
L 325.318442 162.947689 
L 325.753247 162.449773 
L 326.188052 162.449773 
L 326.622857 161.951857 
L 327.057662 161.951857 
L 327.492468 161.453941 
L 327.927273 161.453941 
L 329.666494 159.462276 
L 330.101299 159.462276 
L 330.970909 158.466444 
L 331.405714 158.466444 
L 332.71013 156.972695 
L 333.57974 156.972695 
L 334.449351 155.976863 
L 334.884156 155.976863 
L 336.188571 154.483114 
L 337.058182 154.483114 
L 338.362597 152.989366 
L 338.797403 152.989366 
L 339.232208 151.993533 
L 339.667013 152.49145 
L 340.536623 152.49145 
L 340.971429 151.495617 
L 341.406234 150.997701 
L 341.841039 150.997701 
L 342.275844 150.499785 
L 342.710649 150.499785 
L 343.145455 150.001869 
L 343.58026 150.001869 
L 344.015065 149.503952 
L 344.44987 149.503952 
L 344.884675 148.50812 
L 345.319481 149.006036 
L 347.058701 147.014371 
L 347.493506 147.014371 
L 347.928312 146.018539 
L 348.363117 146.018539 
L 348.797922 145.520623 
L 349.232727 146.018539 
L 349.667532 145.022707 
L 350.537143 145.022707 
L 350.971948 144.52479 
L 351.406753 144.52479 
L 351.841558 143.528958 
L 352.276364 144.026874 
L 352.711169 143.031042 
L 353.145974 143.528958 
L 353.580779 142.533126 
L 354.015584 142.03521 
L 354.885195 142.03521 
L 355.754805 141.039377 
L 356.18961 141.039377 
L 357.059221 140.043545 
L 357.494026 140.043545 
L 357.928831 139.545629 
L 359.233247 139.545629 
L 359.668052 139.047712 
L 360.102857 139.047712 
L 360.972468 138.05188 
L 361.407273 138.05188 
L 361.842078 137.553964 
L 362.276883 137.553964 
L 362.711688 137.056048 
L 363.146494 137.056048 
L 363.581299 136.558131 
L 364.016104 136.558131 
L 364.885714 135.562299 
L 365.755325 135.562299 
L 366.624935 134.566467 
L 367.05974 134.566467 
L 367.494545 133.570634 
L 367.929351 133.072718 
L 369.668571 133.072718 
L 370.103377 132.574802 
L 370.538182 132.574802 
L 370.972987 132.076886 
L 372.277403 132.076886 
L 372.712208 131.57897 
L 373.147013 131.57897 
L 373.581818 131.081053 
L 373.581818 131.081053 
" style="fill:none;stroke:#fffea3;stroke-linecap:square;stroke-width:1.5;"/>
   </g>
   <g id="line2d_40">
    <path clip-path="url(#p50501f3130)" d="M 69.218182 242.116364 
L 228.356883 242.010307 
L 233.13974 241.645335 
L 236.618182 241.12551 
L 240.096623 240.423449 
L 244.00987 239.472429 
L 247.923117 238.302326 
L 252.271169 236.78866 
L 254.88 235.693245 
L 256.619221 234.996162 
L 258.793247 233.900747 
L 260.097662 233.253455 
L 262.271688 232.15804 
L 264.445714 230.763875 
L 265.315325 230.31575 
L 270.532987 226.63117 
L 273.141818 224.639505 
L 274.011429 224.091798 
L 276.185455 222.398883 
L 276.62026 222.199716 
L 278.794286 220.506801 
L 280.968312 219.212219 
L 281.403117 218.764094 
L 283.142338 217.668679 
L 285.316364 216.274513 
L 286.620779 215.428056 
L 287.49039 214.93014 
L 288.794805 214.382432 
L 290.099221 213.635558 
L 290.534026 213.535974 
L 291.403636 212.938475 
L 294.012468 211.444726 
L 294.447273 211.394935 
L 295.316883 210.897019 
L 296.186494 210.399102 
L 297.056104 210.000769 
L 299.23013 208.805771 
L 300.969351 208.108688 
L 301.838961 207.660563 
L 302.708571 207.461397 
L 304.447792 206.515356 
L 304.882597 206.067232 
L 305.317403 205.868065 
L 306.187013 205.668899 
L 309.665455 203.975984 
L 310.10026 203.677234 
L 311.404675 203.278901 
L 312.274286 202.93036 
L 313.143896 202.482235 
L 313.578701 202.33286 
L 314.013506 202.432443 
L 315.317922 201.934527 
L 316.187532 201.386819 
L 322.274805 199.24578 
L 322.70961 198.94703 
L 323.579221 198.797655 
L 324.014026 198.797655 
L 325.318442 198.249947 
L 326.188052 197.801823 
L 326.622857 197.652448 
L 327.057662 197.752031 
L 328.362078 197.254115 
L 328.796883 196.756199 
L 329.666494 196.457449 
L 331.405714 195.810158 
L 331.840519 195.461617 
L 332.71013 195.113075 
L 333.144935 195.162867 
L 334.014545 194.664951 
L 335.318961 194.415993 
L 337.927792 193.469952 
L 338.362597 193.619327 
L 338.797403 193.519744 
L 339.232208 193.270785 
L 339.667013 192.872452 
L 340.536623 192.623494 
L 340.971429 192.673286 
L 342.275844 192.324745 
L 342.710649 191.826828 
L 344.44987 191.826828 
L 344.884675 191.328912 
L 346.189091 191.328912 
L 346.623896 190.830996 
L 347.493506 190.830996 
L 347.928312 190.33308 
L 348.797922 190.33308 
L 349.232727 189.835164 
L 350.971948 189.835164 
L 351.406753 189.337248 
L 352.276364 189.337248 
L 352.711169 188.341415 
L 353.145974 188.341415 
L 353.580779 188.839331 
L 354.015584 188.839331 
L 354.45039 188.341415 
L 354.885195 188.341415 
L 355.32 187.843499 
L 356.624416 187.843499 
L 357.059221 187.345583 
L 357.928831 187.345583 
L 358.363636 186.847667 
L 358.798442 187.345583 
L 359.233247 186.847667 
L 360.102857 186.847667 
L 360.537662 186.34975 
L 363.146494 186.34975 
L 363.581299 185.851834 
L 364.016104 185.851834 
L 364.450909 185.353918 
L 366.19013 185.353918 
L 366.624935 184.856002 
L 367.494545 184.856002 
L 367.929351 184.358086 
L 368.364156 184.856002 
L 368.798961 184.856002 
L 369.233766 184.358086 
L 370.103377 184.358086 
L 370.538182 183.860169 
L 373.147013 183.860169 
L 373.581818 183.362253 
L 373.581818 183.362253 
" style="fill:none;stroke:#b0e0e6;stroke-linecap:square;stroke-width:1.5;"/>
   </g>
   <g id="line2d_41">
    <path clip-path="url(#p50501f3130)" d="M 69.218182 242.116364 
L 237.052987 242.00981 
L 248.792727 241.624422 
L 257.054026 241.12551 
L 266.61974 240.264115 
L 280.968312 238.566221 
L 288.794805 237.769555 
L 294.447273 237.271639 
L 296.621299 237.08741 
L 298.360519 236.987827 
L 299.664935 236.838452 
L 300.09974 236.938035 
L 300.969351 236.738869 
L 302.273766 236.639286 
L 303.143377 236.539702 
L 305.317403 236.440119 
L 308.361039 236.191161 
L 310.10026 236.091578 
L 311.839481 235.991995 
L 313.143896 235.892411 
L 314.448312 235.84262 
L 316.187532 235.743036 
L 318.796364 235.54387 
L 321.405195 235.444287 
L 323.579221 235.294912 
L 325.318442 235.195329 
L 327.492468 235.045954 
L 329.231688 234.946371 
L 331.405714 234.796996 
L 334.014545 234.697412 
L 335.318961 234.597829 
L 336.623377 234.647621 
L 338.362597 234.548038 
L 340.101818 234.448454 
L 342.275844 234.299079 
L 344.44987 234.249288 
L 345.319481 234.149705 
L 346.623896 234.099913 
L 348.363117 234.050121 
L 349.232727 233.950538 
L 351.406753 233.801163 
L 354.45039 233.70158 
L 357.059221 233.502414 
L 361.407273 233.40283 
L 362.711688 233.303247 
L 363.581299 233.353039 
L 366.19013 233.153872 
L 370.538182 233.054289 
L 372.712208 232.904914 
L 373.581818 232.904914 
L 373.581818 232.904914 
" style="fill:none;stroke:#92c6ff;stroke-linecap:square;stroke-width:1.5;"/>
   </g>
   <g id="line2d_42">
    <path clip-path="url(#p50501f3130)" d="M 69.218182 242.116364 
L 373.581818 242.020266 
L 373.581818 242.020266 
" style="fill:none;stroke:#97f0aa;stroke-linecap:square;stroke-width:1.5;"/>
   </g>
   <g id="patch_3">
    <path d="M 54 252 
L 54 34.56 
" style="fill:none;stroke:#000000;stroke-linecap:square;stroke-linejoin:miter;stroke-width:0.8;"/>
   </g>
   <g id="patch_4">
    <path d="M 388.8 252 
L 388.8 34.56 
" style="fill:none;stroke:#000000;stroke-linecap:square;stroke-linejoin:miter;stroke-width:0.8;"/>
   </g>
   <g id="patch_5">
    <path d="M 54 252 
L 388.8 252 
" style="fill:none;stroke:#000000;stroke-linecap:square;stroke-linejoin:miter;stroke-width:0.8;"/>
   </g>
   <g id="patch_6">
    <path d="M 54 34.56 
L 388.8 34.56 
" style="fill:none;stroke:#000000;stroke-linecap:square;stroke-linejoin:miter;stroke-width:0.8;"/>
   </g>
   <g id="text_21">
    <!-- Corrected Data -->
    <defs>
     <path d="M 45.40625 46.390625 
L 45.40625 75.984375 
L 54.390625 75.984375 
L 54.390625 0 
L 45.40625 0 
L 45.40625 8.203125 
Q 42.578125 3.328125 38.25 0.953125 
Q 33.9375 -1.421875 27.875 -1.421875 
Q 17.96875 -1.421875 11.734375 6.484375 
Q 5.515625 14.40625 5.515625 27.296875 
Q 5.515625 40.1875 11.734375 48.09375 
Q 17.96875 56 27.875 56 
Q 33.9375 56 38.25 53.625 
Q 42.578125 51.265625 45.40625 46.390625 
z
M 14.796875 27.296875 
Q 14.796875 17.390625 18.875 11.75 
Q 22.953125 6.109375 30.078125 6.109375 
Q 37.203125 6.109375 41.296875 11.75 
Q 45.40625 17.390625 45.40625 27.296875 
Q 45.40625 37.203125 41.296875 42.84375 
Q 37.203125 48.484375 30.078125 48.484375 
Q 22.953125 48.484375 18.875 42.84375 
Q 14.796875 37.203125 14.796875 27.296875 
z
" id="DejaVuSans-100"/>
     <path d="M 19.671875 64.796875 
L 19.671875 8.109375 
L 31.59375 8.109375 
Q 46.6875 8.109375 53.6875 14.9375 
Q 60.6875 21.78125 60.6875 36.53125 
Q 60.6875 51.171875 53.6875 57.984375 
Q 46.6875 64.796875 31.59375 64.796875 
z
M 9.8125 72.90625 
L 30.078125 72.90625 
Q 51.265625 72.90625 61.171875 64.09375 
Q 71.09375 55.28125 71.09375 36.53125 
Q 71.09375 17.671875 61.125 8.828125 
Q 51.171875 0 30.078125 0 
L 9.8125 0 
z
" id="DejaVuSans-68"/>
    </defs>
    <g transform="translate(175.531875 28.56)scale(0.12 -0.12)">
     <use xlink:href="#DejaVuSans-67"/>
     <use x="69.824219" xlink:href="#DejaVuSans-111"/>
     <use x="131.005859" xlink:href="#DejaVuSans-114"/>
     <use x="172.103516" xlink:href="#DejaVuSans-114"/>
     <use x="213.185547" xlink:href="#DejaVuSans-101"/>
     <use x="274.708984" xlink:href="#DejaVuSans-99"/>
     <use x="329.689453" xlink:href="#DejaVuSans-116"/>
     <use x="368.898438" xlink:href="#DejaVuSans-101"/>
     <use x="430.421875" xlink:href="#DejaVuSans-100"/>
     <use x="493.898438" xlink:href="#DejaVuSans-32"/>
     <use x="525.685547" xlink:href="#DejaVuSans-68"/>
     <use x="602.6875" xlink:href="#DejaVuSans-97"/>
     <use x="663.966797" xlink:href="#DejaVuSans-116"/>
     <use x="703.175781" xlink:href="#DejaVuSans-97"/>
    </g>
   </g>
  </g>
 </g>
 <defs>
  <clipPath id="p50501f3130">
   <rect height="217.44" width="334.8" x="54" y="34.56"/>
  </clipPath>
 </defs>
</svg>
